0
SECTION
2
HEADER
9
$INSUNITS
70
4
9
$ACADVER
1
AC1014
9
$HANDSEED
5
FFFF
0
ENDSEC
0
SECTION
2
TABLES
0
TABLE
2
VPORT
5
8
100
AcDbSymbolTable
0
ENDTAB
0
TABLE
2
LTYPE
5
5
100
AcDbSymbolTable
0
LTYPE
5
14
100
AcDbSymbolTableRecord
100
AcDbLinetypeTableRecord
2
BYBLOCK
70
0
0
LTYPE
5
15
100
AcDbSymbolTableRecord
100
AcDbLinetypeTableRecord
2
BYLAYER
70
0
0
ENDTAB
0
TABLE
2
LAYER
5
2
100
AcDbSymbolTable
70
2
0
LAYER
5
50
100
AcDbSymbolTableRecord
100
AcDbLayerTableRecord
2
0
70
0
6
CONTINUOUS
0
ENDTAB
0
TABLE
2
STYLE
5
3
100
AcDbSymbolTable
70
1
0
STYLE
5
11
100
AcDbSymbolTableRecord
100
AcDbTextStyleTableRecord
2
STANDARD
70
0
0
ENDTAB
0
TABLE
2
VIEW
5
6
100
AcDbSymbolTable
70
0
0
ENDTAB
0
TABLE
2
UCS
5
7
100
AcDbSymbolTable
70
0
0
ENDTAB
0
TABLE
2
APPID
5
9
100
AcDbSymbolTable
70
2
0
APPID
5
12
100
AcDbSymbolTableRecord
100
AcDbRegAppTableRecord
2
ACAD
70
0
0
ENDTAB
0
TABLE
2
DIMSTYLE
5
A
100
AcDbSymbolTable
70
1
0
ENDTAB
0
TABLE
2
BLOCK_RECORD
5
1
100
AcDbSymbolTable
70
1
0
BLOCK_RECORD
5
1F
100
AcDbSymbolTableRecord
100
AcDbBlockTableRecord
2
*MODEL_SPACE
0
BLOCK_RECORD
5
1B
100
AcDbSymbolTableRecord
100
AcDbBlockTableRecord
2
*PAPER_SPACE
0
ENDTAB
0
ENDSEC
0
SECTION
2
BLOCKS
0
BLOCK
5
20
100
AcDbEntity
100
AcDbBlockBegin
2
*MODEL_SPACE
0
ENDBLK
5
21
100
AcDbEntity
100
AcDbBlockEnd
0
BLOCK
5
1C
100
AcDbEntity
100
AcDbBlockBegin
2
*PAPER_SPACE
0
ENDBLK
5
1D
100
AcDbEntity
100
AcDbBlockEnd
0
ENDSEC
0
SECTION
2
ENTITIES
0
LINE
5
100
100
AcDbEntity
8
0
100
AcDbLine
10
5.5828120103962187
20
22.546905099688889
30
0
11
5.9732547845937685
21
30.563559873637132
31
0
0
ARC
5
101
100
AcDbEntity
8
0
100
AcDbCircle
10
2.5000000000000053
20
20.30457420922243
30
0
40
1.0000000000000031
210
0
220
0
230
1
100
AcDbArc
50
180
51
288.62053162493493
0
LINE
5
102
100
AcDbEntity
8
0
100
AcDbLine
10
1.5000000000000024
20
20.30457420922243
30
0
11
1.5000000000000036
21
21.566756826189671
31
0
0
ARC
5
103
100
AcDbEntity
8
0
100
AcDbCircle
10
0
20
21.566756826189703
30
0
40
1.5000000000000036
210
-0
220
0
230
1
100
AcDbArc
50
0
51
180
0
ARC
5
104
100
AcDbEntity
8
0
100
AcDbCircle
10
-0.97917444276349519
20
30.8067913259341
30
0
40
5.0000000000004121
210
0
220
0
230
1
100
AcDbArc
50
175.89325748621351
51
182.78832761556396
0
LINE
5
105
100
AcDbEntity
8
0
100
AcDbLine
10
-1.5000000000000024
20
20.304574209222427
30
0
11
-1.5000000000000013
21
21.566756826189671
31
0
0
ARC
5
106
100
AcDbEntity
8
0
100
AcDbCircle
10
0
20
21.566756826189703
30
0
40
1.5000000000000013
210
0
220
-0
230
1
100
AcDbArc
50
0
51
180
0
ARC
5
107
100
AcDbEntity
8
0
100
AcDbCircle
10
1.3407610566004458
20
23.745104149898879
30
0
40
4.6305758772659225
210
-0
220
0
230
1
100
AcDbArc
50
288.62053162493504
51
319.80954794979721
0
CIRCLE
5
108
100
AcDbEntity
8
0
100
AcDbCircle
10
1.9495516312417749e-12
20
31.112698372209458
30
0
40
1.4999999999986855
210
-0
220
0
230
1
0
LINE
5
109
100
AcDbEntity
8
0
100
AcDbLine
10
-5.582812010395819
20
22.546905099691166
30
0
11
-5.9732547845900896
21
30.563559873639573
31
0
0
ARC
5
110
100
AcDbEntity
8
0
100
AcDbCircle
10
-2.5000000000000036
20
20.30457420922243
30
0
40
1.0000000000000056
210
0
220
0
230
1
100
AcDbArc
50
251.37946837506499
51
360
0
ARC
5
111
100
AcDbEntity
8
0
100
AcDbCircle
10
-2.5863638053001048
20
22.692843971067916
30
0
40
3.0000000000000075
210
0
220
0
230
1
100
AcDbArc
50
182.78832761556484
51
220.19045205020271
0
LINE
5
112
100
AcDbEntity
8
0
100
AcDbLine
10
-5.8867924528305382
20
32.272730534391904
30
0
11
-5.9663362541242693
21
31.164865434616715
31
0
0
ARC
5
113
100
AcDbEntity
8
0
100
AcDbCircle
10
738.83760678032286
20
84.876028879529002
30
0
40
734.83603832427946
210
0
220
0
230
1
100
AcDbArc
50
180.06720632573575
51
184.10503419009999
0
ARC
5
114
100
AcDbEntity
8
0
100
AcDbCircle
10
0.97917444276726773
20
30.806791325933702
30
0
40
5.0000000000004192
210
-0
220
0
230
1
100
AcDbArc
50
-2.7883276155875092
51
4.1067425137630558
0
LINE
5
115
100
AcDbEntity
8
0
100
AcDbLine
10
5.8867924528349107
20
32.272730534389503
30
0
11
5.9663362541281906
21
31.164865434614278
31
0
0
ARC
5
116
100
AcDbEntity
8
0
100
AcDbCircle
10
-738.83757826079568
20
84.876027840688522
30
0
40
734.83600980355345
210
-0
220
0
230
1
100
AcDbArc
50
355.89496573150831
51
359.93279375265479
0
ARC
5
117
100
AcDbEntity
8
0
100
AcDbCircle
10
2.5863638053001026
20
22.692843971067916
30
0
40
3.0000000000000089
210
-0
220
0
230
1
100
AcDbArc
50
319.80954794979732
51
357.21167238443525
0
ARC
5
118
100
AcDbEntity
8
0
100
AcDbCircle
10
-1.340761056600448
20
23.745104149898879
30
0
40
4.6305758772659189
210
0
220
0
230
1
100
AcDbArc
50
220.19045205020282
51
251.37946837506502
0
ARC
5
119
100
AcDbEntity
8
0
100
AcDbCircle
10
-6.1871843353817013
20
96.464065664618332
30
0
40
1.5000000000000033
210
0
220
0
230
1
100
AcDbArc
50
135.00000000000037
51
314.99999999999932
0
LINE
5
120
100
AcDbEntity
8
0
100
AcDbLine
10
-6.3489362777381952
20
89.248267107145537
30
0
11
-9.8855929414562027
21
92.395097287168539
31
0
0
LINE
5
121
100
AcDbEntity
8
0
100
AcDbLine
10
7.2478445071615205
20
97.524725836398133
30
0
11
6.5407377259755606
21
98.231832617584089
31
0
0
LINE
5
122
100
AcDbEntity
8
0
100
AcDbLine
10
9.6303187016803093
20
100.13616870375849
30
0
11
10.84391963227624
21
97.913445514020609
31
0
0
ARC
5
123
100
AcDbEntity
8
0
100
AcDbCircle
10
6.8942911165688336
20
95.756958883431182
30
0
40
4.5000000000000222
210
0
220
0
230
1
100
AcDbArc
50
-48.338098191971319
51
28.63442249199219
0
LINE
5
124
100
AcDbEntity
8
0
100
AcDbLine
10
5.1265241636018821
20
95.403405492838488
30
0
11
4.4194173824159044
21
96.110512274024472
31
0
0
LINE
5
125
100
AcDbEntity
8
0
100
AcDbLine
10
9.6303187016803093
20
100.13616870375849
30
0
11
10.84391963227624
21
97.913445514020609
31
0
0
LINE
5
126
100
AcDbEntity
8
0
100
AcDbLine
10
-6.5407377259755695
20
98.231832617584104
30
0
11
-7.2478445071615294
21
97.524725836398147
31
0
0
ARC
5
127
100
AcDbEntity
8
0
100
AcDbCircle
10
11.002072449785167
20
84.01870462407031
30
0
40
6.9999999999999858
210
0
220
0
230
1
100
AcDbArc
50
131.66190180802846
51
180.0377939055472
0
ARC
5
128
100
AcDbEntity
8
0
100
AcDbCircle
10
6.1871843353817013
20
96.464065664618332
30
0
40
1.5000000000000098
210
0
220
0
230
1
100
AcDbArc
50
-134.99999999999935
51
44.999999999999524
0
ARC
5
129
100
AcDbEntity
8
0
100
AcDbCircle
10
5.4800775541957414
20
97.171172445804274
30
0
40
1.4999999999999971
210
0
220
-0
230
1
100
AcDbArc
50
44.999999999999901
51
224.99999999999903
0
ARC
5
130
100
AcDbEntity
8
0
100
AcDbCircle
10
-11.002072449785176
20
84.01870462407031
30
0
40
7.0000000000000089
210
0
220
0
230
1
100
AcDbArc
50
-0.037793905547222714
51
48.338098191971447
0
LINE
5
131
100
AcDbEntity
8
0
100
AcDbLine
10
-9.6303187016803093
20
100.13616870375849
30
0
11
-10.84391963227624
21
97.913445514020609
31
0
0
ARC
5
132
100
AcDbEntity
8
0
100
AcDbCircle
10
6.8942911165688336
20
95.756958883431182
30
0
40
4.5000000000000222
210
0
220
0
230
1
100
AcDbArc
50
-48.338098191971319
51
28.63442249199219
0
ARC
5
133
100
AcDbEntity
8
0
100
AcDbCircle
10
-6.8942911165688336
20
95.756958883431182
30
0
40
4.5000000000000036
210
0
220
0
230
1
100
AcDbArc
50
151.36557750800782
51
228.33809819197114
0
LINE
5
134
100
AcDbEntity
8
0
100
AcDbLine
10
-4.7729707730091864
20
112.49528858487463
30
0
11
4.7729707730091775
21
112.49528858487466
31
0
0
LINE
5
135
100
AcDbEntity
8
0
100
AcDbLine
10
14.29160817645263
20
112.04771899329671
30
0
11
4.0000000000000036
21
122.33932716974935
31
0
0
ARC
5
136
100
AcDbEntity
8
0
100
AcDbCircle
10
-4.7729707730091864
20
114.49528858487466
30
0
40
2.00000000000004
210
0
220
0
230
1
100
AcDbArc
50
135.0000000000006
51
224.99999999999966
0
ARC
5
137
100
AcDbEntity
8
0
100
AcDbCircle
10
-11.110628681397436
20
101.79567168637605
30
0
40
2.0000000000000115
210
0
220
0
230
1
100
AcDbArc
50
-14.213221730308046
51
44.999999999999709
0
LINE
5
138
100
AcDbEntity
8
0
100
AcDbLine
10
5.1265241636018821
20
109.89909450716152
30
0
11
4.4194173824159044
21
109.19198772597555
31
0
0
LINE
5
139
100
AcDbEntity
8
0
100
AcDbLine
10
-11.860811110549925
20
118.75470179766918
30
0
11
-12.062846759521442
21
118.95673744664069
31
0
0
ARC
5
140
100
AcDbEntity
8
0
100
AcDbCircle
10
6.1871843353817013
20
108.83843433538169
30
0
40
1.4999999999999971
210
-0
220
0
230
1
100
AcDbArc
50
-44.999999999999901
51
134.99999999999972
0
LINE
5
141
100
AcDbEntity
8
0
100
AcDbLine
10
-4.105719394477072
20
122.22529067263108
30
0
11
-2.1171617922390151
21
124.21384827486911
31
0
0
LINE
5
142
100
AcDbEntity
8
0
100
AcDbLine
10
-14.29160817645263
20
112.0477189932967
30
0
11
-4.2426406871192945
21
122.09668648263008
31
0
0
ARC
5
143
100
AcDbEntity
8
0
100
AcDbCircle
10
4.7729707730092485
20
114.49528858487466
30
0
40
1.9999999999999709
210
0
220
0
230
1
100
AcDbArc
50
-45.000000000001016
51
44.999999999999858
0
ARC
5
144
100
AcDbEntity
8
0
100
AcDbCircle
10
12.170287832892992
20
109.92639864973705
30
0
40
2.9999999999999942
210
0
220
0
230
1
100
AcDbArc
50
-44.999999999999901
51
45.000000000000291
0
LWPOLYLINE
5
145
100
AcDbEntity
8
0
100
AcDbPolyline
90
4
70
1
43
0.0
10
-5.1265241636018732
20
109.89909450716149
10
-4.4194173824159044
20
109.19198772597555
42
-0.99999999999999989
10
-6.5407377259755606
20
107.07066738241592
10
-7.2478445071615116
20
107.77777416360189
42
-0.99999999999999989
0
ARC
5
146
100
AcDbEntity
8
0
100
AcDbCircle
10
14.01879483024409
20
102.53226495996886
30
0
40
4.9999999999999458
210
0
220
0
230
1
100
AcDbArc
50
194.21322173030643
51
208.63442249199116
0
LINE
5
147
100
AcDbEntity
8
0
100
AcDbLine
10
4.0000000000000036
20
122.33932716974935
30
0
11
2.1254788948802528
21
124.21384827486909
31
0
0
ARC
5
148
100
AcDbEntity
8
0
100
AcDbCircle
10
14.01879483024409
20
102.53226495996886
30
0
40
4.9999999999999458
210
0
220
0
230
1
100
AcDbArc
50
194.21322173030643
51
208.63442249199116
0
LINE
5
149
100
AcDbEntity
8
0
100
AcDbLine
10
6.5407377259755606
20
107.07066738241592
30
0
11
7.2478445071615205
21
107.77777416360188
31
0
0
ARC
5
150
100
AcDbEntity
8
0
100
AcDbCircle
10
-14.01879483024409
20
102.53226495996886
30
0
40
4.999999999999952
210
0
220
0
230
1
100
AcDbArc
50
331.36557750800881
51
345.7867782696934
0
ARC
5
151
100
AcDbEntity
8
0
100
AcDbCircle
10
11.110628681397436
20
101.79567168637605
30
0
40
2.0000000000000084
210
0
220
0
230
1
100
AcDbArc
50
135.00000000000037
51
194.21322173030777
0
ARC
5
152
100
AcDbEntity
8
0
100
AcDbCircle
10
0.0041585513206143787
20
122.09252793130943
30
0
40
3.0000000000000067
210
0
220
-0
230
1
100
AcDbArc
50
45.000000000000291
51
134.9999999999994
0
ARC
5
153
100
AcDbEntity
8
0
100
AcDbCircle
10
-2.1213203435596562
20
119.9753661390705
30
0
40
2.9999999999999485
210
0
220
0
230
1
100
AcDbArc
50
131.41180110733842
51
135.00000000000085
0
LINE
5
154
100
AcDbEntity
8
0
100
AcDbLine
10
6.1871843353823053
20
115.90950214724771
30
0
11
2.1213203435596562
21
119.97536613907042
31
0
0
ARC
5
155
100
AcDbEntity
8
0
100
AcDbCircle
10
5.4800775541957414
20
108.13132755419574
30
0
40
1.5000000000000098
210
0
220
0
230
1
100
AcDbArc
50
135.0000000000006
51
315.00000000000011
0
ARC
5
156
100
AcDbEntity
8
0
100
AcDbCircle
10
-5.4800775541957236
20
97.171172445804288
30
0
40
1.4999999999999971
210
-0
220
0
230
1
100
AcDbArc
50
-44.999999999999901
51
135.0000000000008
0
ARC
5
157
100
AcDbEntity
8
0
100
AcDbCircle
10
1.7763568394002505e-14
20
117.85404579551081
30
0
40
2.9999999999999689
210
0
220
-0
230
1
100
AcDbArc
50
44.999999999999524
51
134.9999999999998
0
ARC
5
158
100
AcDbEntity
8
0
100
AcDbCircle
10
4.7729707730091775
20
114.49528858487466
30
0
40
1.9999999999999929
210
-0
220
0
230
1
100
AcDbArc
50
-90
51
44.999999999998415
0
LINE
5
159
100
AcDbEntity
8
0
100
AcDbLine
10
9.6964151190243264
20
103.20988524874915
30
0
11
14.29160817645263
21
107.80507830617742
31
0
0
LINE
5
160
100
AcDbEntity
8
0
100
AcDbLine
10
-5.1265241636018821
20
95.403405492838488
30
0
11
-4.4194173824159044
21
96.110512274024472
31
0
0
LINE
5
161
100
AcDbEntity
8
0
100
AcDbLine
10
6.3489362777382041
20
89.248267107145537
30
0
11
9.8855929414562027
21
92.395097287168525
31
0
0
ARC
5
162
100
AcDbEntity
8
0
100
AcDbCircle
10
-4.7729707730091686
20
114.49528858487467
30
0
40
2.00000000000004
210
0
220
0
230
1
100
AcDbArc
50
135.00000000000128
51
269.99999999999949
0
CIRCLE
5
163
100
AcDbEntity
8
0
100
AcDbCircle
10
0
20
102.65124999999999
30
0
40
2.7500000000000018
210
0
220
0
230
1
0
LINE
5
164
100
AcDbEntity
8
0
100
AcDbLine
10
-9.6964151190243442
20
103.20988524874913
30
0
11
-14.291608176452621
21
107.80507830617742
31
0
0
ARC
5
165
100
AcDbEntity
8
0
100
AcDbCircle
10
-12.170287832892983
20
109.92639864973705
30
0
40
3.0000000000000004
210
0
220
0
230
1
100
AcDbArc
50
135.00000000000006
51
224.99999999999989
0
LINE
5
166
100
AcDbEntity
8
0
100
AcDbLine
10
-2.1213203435596562
20
119.9753661390705
30
0
11
-6.187184335382323
21
115.90950214724776
31
0
0
ENDSEC
0
SECTION
2
OBJECTS
0
DICTIONARY
5
C
100
AcDbDictionary
3
ACAD_GROUP
350
D
3
ACAD_MLINESTYLE
350
17
0
DICTIONARY
5
D
100
AcDbDictionary
0
DICTIONARY
5
1A
330
C
100
AcDbDictionary
0
DICTIONARY
5
17
100
AcDbDictionary
0
ENDSEC
0
EOF
