0
SECTION
2
HEADER
9
$INSUNITS
70
4
9
$ACADVER
1
AC1014
9
$HANDSEED
5
FFFF
0
ENDSEC
0
SECTION
2
TABLES
0
TABLE
2
VPORT
5
8
100
AcDbSymbolTable
0
ENDTAB
0
TABLE
2
LTYPE
5
5
100
AcDbSymbolTable
0
LTYPE
5
14
100
AcDbSymbolTableRecord
100
AcDbLinetypeTableRecord
2
BYBLOCK
70
0
0
LTYPE
5
15
100
AcDbSymbolTableRecord
100
AcDbLinetypeTableRecord
2
BYLAYER
70
0
0
ENDTAB
0
TABLE
2
LAYER
5
2
100
AcDbSymbolTable
70
2
0
LAYER
5
50
100
AcDbSymbolTableRecord
100
AcDbLayerTableRecord
2
0
70
0
6
CONTINUOUS
0
ENDTAB
0
TABLE
2
STYLE
5
3
100
AcDbSymbolTable
70
1
0
STYLE
5
11
100
AcDbSymbolTableRecord
100
AcDbTextStyleTableRecord
2
STANDARD
70
0
0
ENDTAB
0
TABLE
2
VIEW
5
6
100
AcDbSymbolTable
70
0
0
ENDTAB
0
TABLE
2
UCS
5
7
100
AcDbSymbolTable
70
0
0
ENDTAB
0
TABLE
2
APPID
5
9
100
AcDbSymbolTable
70
2
0
APPID
5
12
100
AcDbSymbolTableRecord
100
AcDbRegAppTableRecord
2
ACAD
70
0
0
ENDTAB
0
TABLE
2
DIMSTYLE
5
A
100
AcDbSymbolTable
70
1
0
ENDTAB
0
TABLE
2
BLOCK_RECORD
5
1
100
AcDbSymbolTable
70
1
0
BLOCK_RECORD
5
1F
100
AcDbSymbolTableRecord
100
AcDbBlockTableRecord
2
*MODEL_SPACE
0
BLOCK_RECORD
5
1B
100
AcDbSymbolTableRecord
100
AcDbBlockTableRecord
2
*PAPER_SPACE
0
ENDTAB
0
ENDSEC
0
SECTION
2
BLOCKS
0
BLOCK
5
20
100
AcDbEntity
100
AcDbBlockBegin
2
*MODEL_SPACE
0
ENDBLK
5
21
100
AcDbEntity
100
AcDbBlockEnd
0
BLOCK
5
1C
100
AcDbEntity
100
AcDbBlockBegin
2
*PAPER_SPACE
0
ENDBLK
5
1D
100
AcDbEntity
100
AcDbBlockEnd
0
ENDSEC
0
SECTION
2
ENTITIES
0
CIRCLE
5
100
100
AcDbEntity
8
0
100
AcDbCircle
10
63.605497231441895
20
-63.60549723144225
30
0
40
3.499999999999996
210
0
220
-0
230
1
0
CIRCLE
5
101
100
AcDbEntity
8
0
100
AcDbCircle
10
55.605497231441909
20
-63.605497231442243
30
0
40
1.5000000000000036
210
0
220
-0
230
1
0
CIRCLE
5
102
100
AcDbEntity
8
0
100
AcDbCircle
10
63.605497231441881
20
-71.605497231442243
30
0
40
1.5000000000000036
210
0
220
-0
230
1
0
CIRCLE
5
103
100
AcDbEntity
8
0
100
AcDbCircle
10
63.605497231441916
20
-55.605497231442264
30
0
40
1.5000000000000036
210
0
220
-0
230
1
0
CIRCLE
5
104
100
AcDbEntity
8
0
100
AcDbCircle
10
71.605497231441888
20
-63.605497231442271
30
0
40
1.5000000000000036
210
0
220
-0
230
1
0
CIRCLE
5
105
100
AcDbEntity
8
0
100
AcDbCircle
10
22.000000000000142
20
-22.000000000000213
30
0
40
1.4999999999999991
210
0
220
-0
230
1
0
LWPOLYLINE
5
106
100
AcDbEntity
8
0
100
AcDbPolyline
90
28
70
1
43
0.0
10
58.425561922785903
20
-71.54369404658587
10
60.700759721786241
20
-80.3554972314422
42
0.77459666924149273
10
66.510234741097378
20
-80.355497231442229
10
68.614496664250865
20
-72.205725847010498
42
-0.27284213266315688
10
72.205725847010157
20
-68.614496664251234
10
80.355497231441873
20
-66.510234741097818
42
0.77459666924149018
10
80.355497231441859
20
-60.700759721786682
10
71.543694046585514
20
-58.425561922786351
42
-0.30957090122475395
10
68.571162128743907
20
-55.020542423184821
42
0.44214592917197376
10
62.555001230135439
20
-50.717096864119739
42
-0.25917124715160295
10
53.893674626143195
20
-48.080416423975151
42
-0.013907120455058729
10
26.142225645067754
20
-17.705432371610499
42
0.030652281355708383
10
25.714210378114878
20
-17.267342604197623
10
19.888608485196496
20
-11.993333488306174
42
0.164047826202664
10
18.130918797169432
20
-11.228247222681777
42
0.13726058527520002
10
15.680365558897764
20
-11.693110891156877
42
0.51297930174448192
10
15.417463384951732
20
-13.296143041392119
10
16.310660171779819
20
-14.189339828220204
42
-0.99999999999999989
10
14.18933982822017
20
-16.310660171779837
10
13.296143041392089
20
-15.417463384951752
42
0.51297930250773982
10
11.69311089008265
20
-15.680365561062942
42
0.1372607670342833
10
11.228247504434275
20
-18.130922090423429
42
0.16404754334972568
10
11.993333488306121
20
-19.888608485196496
10
17.267342604197623
20
-25.714210378114828
42
0.03065228135567975
10
17.70543237160981
20
-26.142225645066631
42
-0.013907120455063281
10
48.080416423975841
20
-53.893674626144445
42
-0.25917124715159845
10
50.71709686411937
20
-62.55500123013573
42
0.44214592917197371
10
55.02054242318443
20
-68.571162128744277
42
-0.30957090122475533
0
ENDSEC
0
SECTION
2
OBJECTS
0
DICTIONARY
5
C
100
AcDbDictionary
3
ACAD_GROUP
350
D
3
ACAD_MLINESTYLE
350
17
0
DICTIONARY
5
D
100
AcDbDictionary
0
DICTIONARY
5
1A
330
C
100
AcDbDictionary
0
DICTIONARY
5
17
100
AcDbDictionary
0
ENDSEC
0
EOF
