0
SECTION
2
HEADER
9
$INSUNITS
70
4
9
$ACADVER
1
AC1014
9
$HANDSEED
5
FFFF
0
ENDSEC
0
SECTION
2
TABLES
0
TABLE
2
VPORT
5
8
100
AcDbSymbolTable
0
ENDTAB
0
TABLE
2
LTYPE
5
5
100
AcDbSymbolTable
0
LTYPE
5
14
100
AcDbSymbolTableRecord
100
AcDbLinetypeTableRecord
2
BYBLOCK
70
0
0
LTYPE
5
15
100
AcDbSymbolTableRecord
100
AcDbLinetypeTableRecord
2
BYLAYER
70
0
0
ENDTAB
0
TABLE
2
LAYER
5
2
100
AcDbSymbolTable
70
2
0
LAYER
5
50
100
AcDbSymbolTableRecord
100
AcDbLayerTableRecord
2
0
70
0
6
CONTINUOUS
0
ENDTAB
0
TABLE
2
STYLE
5
3
100
AcDbSymbolTable
70
1
0
STYLE
5
11
100
AcDbSymbolTableRecord
100
AcDbTextStyleTableRecord
2
STANDARD
70
0
0
ENDTAB
0
TABLE
2
VIEW
5
6
100
AcDbSymbolTable
70
0
0
ENDTAB
0
TABLE
2
UCS
5
7
100
AcDbSymbolTable
70
0
0
ENDTAB
0
TABLE
2
APPID
5
9
100
AcDbSymbolTable
70
2
0
APPID
5
12
100
AcDbSymbolTableRecord
100
AcDbRegAppTableRecord
2
ACAD
70
0
0
ENDTAB
0
TABLE
2
DIMSTYLE
5
A
100
AcDbSymbolTable
70
1
0
ENDTAB
0
TABLE
2
BLOCK_RECORD
5
1
100
AcDbSymbolTable
70
1
0
BLOCK_RECORD
5
1F
100
AcDbSymbolTableRecord
100
AcDbBlockTableRecord
2
*MODEL_SPACE
0
BLOCK_RECORD
5
1B
100
AcDbSymbolTableRecord
100
AcDbBlockTableRecord
2
*PAPER_SPACE
0
ENDTAB
0
ENDSEC
0
SECTION
2
BLOCKS
0
BLOCK
5
20
100
AcDbEntity
100
AcDbBlockBegin
2
*MODEL_SPACE
0
ENDBLK
5
21
100
AcDbEntity
100
AcDbBlockEnd
0
BLOCK
5
1C
100
AcDbEntity
100
AcDbBlockBegin
2
*PAPER_SPACE
0
ENDBLK
5
1D
100
AcDbEntity
100
AcDbBlockEnd
0
ENDSEC
0
SECTION
2
ENTITIES
0
CIRCLE
5
100
100
AcDbEntity
8
0
100
AcDbCircle
10
-29.343145750507624
20
-75.428145750507611
30
0
40
1.5000000000000031
210
0
220
-0
230
1
0
CIRCLE
5
101
100
AcDbEntity
8
0
100
AcDbCircle
10
-40.656854249492376
20
-86.741854249492363
30
0
40
1.5000000000000022
210
0
220
-0
230
1
0
CIRCLE
5
102
100
AcDbEntity
8
0
100
AcDbCircle
10
-35
20
-9.5460000000000012
30
0
40
1.5000000000000016
210
0
220
-0
230
1
0
CIRCLE
5
103
100
AcDbEntity
8
0
100
AcDbCircle
10
-29.343145750507624
20
-86.741854249492363
30
0
40
1.5000000000000031
210
0
220
-0
230
1
0
CIRCLE
5
104
100
AcDbEntity
8
0
100
AcDbCircle
10
-35
20
-81.084999999999994
30
0
40
3.0000000000000004
210
0
220
-0
230
1
0
LWPOLYLINE
5
105
100
AcDbEntity
8
0
100
AcDbPolyline
90
27
70
1
43
0.0
10
-48.897998175519064
20
-90.875078994230279
10
-44.275920181239997
20
-83.035385415523578
42
0.010736669943342426
10
-44.191880849718963
20
-82.88558132665824
42
0.13049298378988242
10
-39.000000000000057
20
-63.331000000000145
42
0.018286798810199963
10
-40.965632661329423
20
-9.6043920687317215
42
-0.030452401834022542
10
-40.973088260205905
20
-8.9959539862280913
10
-40.5829529561219
20
-0.98023985761189258
42
-0.1646783799097003
10
-39.878150252074271
20
0.80998164163055952
42
-0.13963845198763064
10
-37.772712213208479
20
2.2252666644870138
42
-0.49763251275068665
10
-36.5
20
1.2631710098003612
10
-36.5
20
9.184850993605141e-17
42
0.99999999999999989
10
-33.5
20
0
10
-33.5
20
1.2631710098003626
42
-0.497632512750737
10
-32.227287786790868
20
2.2252666644885224
42
-0.13963845199855943
10
-30.121849747796233
20
0.80998164147983043
42
-0.16467837989269227
10
-29.417047043876451
20
-0.98023985761181542
10
-29.026911739793874
20
-8.9959539862280824
42
-0.030452401834047436
10
-29.034367338670393
20
-9.6043920687322348
42
0.018286798810201104
10
-31.000000000000007
20
-63.331000000000003
42
0.25697257966611914
10
-26.667437863927425
20
-71.204333810364503
42
-0.4448523693170775
10
-25.418264916918734
20
-78.525775560883531
42
0.3095709012247565
10
-25.724079818760217
20
-83.035385415523706
10
-21.102001824480951
20
-90.875078994230279
42
-0.77459666924148485
10
-25.209921005769701
20
-94.982998175519043
10
-32.460617492075905
20
-90.708177439721766
42
0.27284213266315105
10
-37.539382507924081
20
-90.708177439721766
10
-44.790078994230285
20
-94.982998175519043
42
-0.77459666924148518
0
ARC
5
106
100
AcDbEntity
8
0
100
AcDbCircle
10
-774.23709908346848
20
-63.330999999996145
30
0
40
735.23709908346848
210
0
220
0
230
1
100
AcDbArc
50
0
51
4.1905584947851482
0
ARC
5
107
100
AcDbEntity
8
0
100
AcDbCircle
10
-78.420904433958526
20
-63.33100000000001
30
0
40
39.420904433958874
210
0
220
0
230
1
100
AcDbArc
50
330.26125262362092
51
360
0
LINE
5
108
100
AcDbEntity
8
0
100
AcDbLine
10
-44.275920181239997
20
-83.035385415523578
30
0
11
-48.897998175519064
21
-90.875078994230279
31
0
0
ARC
5
109
100
AcDbEntity
8
0
100
AcDbCircle
10
-46.313708498984766
20
-92.398708498984746
30
0
40
3.00000000000002
210
0
220
0
230
1
100
AcDbArc
50
149.47751218592998
51
300.52248781407019
0
LINE
5
110
100
AcDbEntity
8
0
100
AcDbLine
10
-44.790078994230299
20
-94.982998175519029
30
0
11
-37.539382507924081
21
-90.708177439721766
31
0
0
LINE
5
111
100
AcDbEntity
8
0
100
AcDbLine
10
-32.460617492075905
20
-90.708177439721766
30
0
11
-25.209921005769701
21
-94.982998175519043
31
0
0
ARC
5
112
100
AcDbEntity
8
0
100
AcDbCircle
10
-34.999999999999993
20
-95.015326900612308
30
0
40
5.0000000000000524
210
0
220
-0
230
1
100
AcDbArc
50
59.477512185930479
51
120.52248781406951
0
ARC
5
113
100
AcDbEntity
8
0
100
AcDbCircle
10
-23.686291501015234
20
-92.398708498984746
30
0
40
3.0000000000000124
210
0
220
0
230
1
100
AcDbArc
50
-120.52248781407002
51
30.522487814070232
0
LINE
5
114
100
AcDbEntity
8
0
100
AcDbLine
10
-21.102001824480958
20
-90.875078994230279
30
0
11
-25.724079818760217
21
-83.035385415523706
31
0
0
ARC
5
115
100
AcDbEntity
8
0
100
AcDbCircle
10
-22.278360250047619
20
-81.003879409184293
30
0
40
4.000000000000254
210
0
220
0
230
1
100
AcDbArc
50
141.71847402875071
51
210.52248781407005
0
ARC
5
116
100
AcDbEntity
8
0
100
AcDbCircle
10
-29.343145750507624
20
-75.428145750507611
30
0
40
5.000000000000294
210
-0
220
0
230
1
100
AcDbArc
50
-38.281525971249046
51
57.646486653400125
0
ARC
5
117
100
AcDbEntity
8
0
100
AcDbCircle
10
-21.679824383826094
20
-63.33100000000001
30
0
40
9.3201756161739091
210
0
220
0
230
1
100
AcDbArc
50
180
51
237.64648665340036
0
CIRCLE
5
118
100
AcDbEntity
8
0
100
AcDbCircle
10
-29.343145750507624
20
-75.428145750507611
30
0
40
1.5000000000000031
210
0
220
-0
230
1
0
CIRCLE
5
119
100
AcDbEntity
8
0
100
AcDbCircle
10
-29.343145750507624
20
-86.741854249492363
30
0
40
1.5000000000000031
210
0
220
-0
230
1
0
CIRCLE
5
120
100
AcDbEntity
8
0
100
AcDbCircle
10
-40.656854249492376
20
-86.741854249492363
30
0
40
1.5000000000000022
210
0
220
-0
230
1
0
CIRCLE
5
121
100
AcDbEntity
8
0
100
AcDbCircle
10
-35
20
-81.084999999999994
30
0
40
3.0000000000000004
210
0
220
-0
230
1
0
ARC
5
122
100
AcDbEntity
8
0
100
AcDbCircle
10
704.23709908342494
20
-63.330999999995186
30
0
40
735.23709908342471
210
0
220
0
230
1
100
AcDbArc
50
175.80944150521466
51
180
0
ARC
5
123
100
AcDbEntity
8
0
100
AcDbCircle
10
-35
20
1.2490009027033011e-15
30
0
40
1.4999999999999991
210
0
220
0
230
1
100
AcDbArc
50
-180
51
0
0
CIRCLE
5
124
100
AcDbEntity
8
0
100
AcDbCircle
10
-35
20
-9.5460000000000012
30
0
40
1.5000000000000016
210
0
220
-0
230
1
0
ARC
5
125
100
AcDbEntity
8
0
100
AcDbCircle
10
-34.021000000000001
20
-9.2390228021497371
30
0
40
5.000000000000222
210
-0
220
0
230
1
100
AcDbArc
50
-4.1905584947856722
51
2.7864617324115648
0
LINE
5
126
100
AcDbEntity
8
0
100
AcDbLine
10
-29.026911739794095
20
-8.9959539862280895
30
0
11
-29.417047043876451
21
-0.98023985761181542
31
0
0
ARC
5
127
100
AcDbEntity
8
0
100
AcDbCircle
10
-35.978999999999999
20
-9.2390228021497371
30
0
40
4.9999999999999991
210
0
220
0
230
1
100
AcDbArc
50
177.21353826758846
51
184.19055849477809
0
LINE
5
128
100
AcDbEntity
8
0
100
AcDbLine
10
-40.582952956123549
20
-0.98023985761181542
30
0
11
-40.973088260205905
21
-8.9959539862280877
31
0
0
ARC
5
129
100
AcDbEntity
8
0
100
AcDbCircle
10
-37.586500000000001
20
-1.1260811471648038
30
0
40
3.0000000000000027
210
0
220
0
230
1
100
AcDbArc
50
139.80775791554208
51
177.21353826758846
0
ARC
5
130
100
AcDbEntity
8
0
100
AcDbCircle
10
-36.341000000000001
20
-2.1783211425341018
30
0
40
4.6304843629576542
210
0
220
0
230
1
100
AcDbArc
50
108.01058885069618
51
139.80775854582848
0
ARC
5
131
100
AcDbEntity
8
0
100
AcDbCircle
10
-37.5
20
1.2631710098003626
30
0
40
1.0000000000000009
210
0
220
0
230
1
100
AcDbArc
50
0
51
105.82572328884179
0
LINE
5
132
100
AcDbEntity
8
0
100
AcDbLine
10
-36.5
20
9.184850993605141e-17
30
0
11
-36.5
21
1.2631710098003623
31
0
0
LINE
5
133
100
AcDbEntity
8
0
100
AcDbLine
10
-33.5
20
1.2631710098003612
30
0
11
-33.5
21
2.2224562755984481e-15
31
0
0
ARC
5
134
100
AcDbEntity
8
0
100
AcDbCircle
10
-32.5
20
1.2631710098003626
30
0
40
1.0000000000000007
210
0
220
-0
230
1
100
AcDbArc
50
74.174276711148906
51
180
0
ARC
5
135
100
AcDbEntity
8
0
100
AcDbCircle
10
-33.658999999999999
20
-2.1783211425341023
30
0
40
4.630484362957656
210
0
220
-0
230
1
100
AcDbArc
50
40.192241451712732
51
71.989411149301816
0
ARC
5
136
100
AcDbEntity
8
0
100
AcDbCircle
10
-32.413499999999999
20
-1.126081147164804
30
0
40
3.0000000000000067
210
0
220
-0
230
1
100
AcDbArc
50
2.7864617324115648
51
40.19224208066278
0
ENDSEC
0
SECTION
2
OBJECTS
0
DICTIONARY
5
C
100
AcDbDictionary
3
ACAD_GROUP
350
D
3
ACAD_MLINESTYLE
350
17
0
DICTIONARY
5
D
100
AcDbDictionary
0
DICTIONARY
5
1A
330
C
100
AcDbDictionary
0
DICTIONARY
5
17
100
AcDbDictionary
0
ENDSEC
0
EOF
