0
SECTION
2
HEADER
9
$INSUNITS
70
4
9
$ACADVER
1
AC1014
9
$HANDSEED
5
FFFF
0
ENDSEC
0
SECTION
2
TABLES
0
TABLE
2
VPORT
5
8
100
AcDbSymbolTable
0
ENDTAB
0
TABLE
2
LTYPE
5
5
100
AcDbSymbolTable
0
LTYPE
5
14
100
AcDbSymbolTableRecord
100
AcDbLinetypeTableRecord
2
BYBLOCK
70
0
0
LTYPE
5
15
100
AcDbSymbolTableRecord
100
AcDbLinetypeTableRecord
2
BYLAYER
70
0
0
ENDTAB
0
TABLE
2
LAYER
5
2
100
AcDbSymbolTable
70
2
0
LAYER
5
50
100
AcDbSymbolTableRecord
100
AcDbLayerTableRecord
2
0
70
0
6
CONTINUOUS
0
ENDTAB
0
TABLE
2
STYLE
5
3
100
AcDbSymbolTable
70
1
0
STYLE
5
11
100
AcDbSymbolTableRecord
100
AcDbTextStyleTableRecord
2
STANDARD
70
0
0
ENDTAB
0
TABLE
2
VIEW
5
6
100
AcDbSymbolTable
70
0
0
ENDTAB
0
TABLE
2
UCS
5
7
100
AcDbSymbolTable
70
0
0
ENDTAB
0
TABLE
2
APPID
5
9
100
AcDbSymbolTable
70
2
0
APPID
5
12
100
AcDbSymbolTableRecord
100
AcDbRegAppTableRecord
2
ACAD
70
0
0
ENDTAB
0
TABLE
2
DIMSTYLE
5
A
100
AcDbSymbolTable
70
1
0
ENDTAB
0
TABLE
2
BLOCK_RECORD
5
1
100
AcDbSymbolTable
70
1
0
BLOCK_RECORD
5
1F
100
AcDbSymbolTableRecord
100
AcDbBlockTableRecord
2
*MODEL_SPACE
0
BLOCK_RECORD
5
1B
100
AcDbSymbolTableRecord
100
AcDbBlockTableRecord
2
*PAPER_SPACE
0
ENDTAB
0
ENDSEC
0
SECTION
2
BLOCKS
0
BLOCK
5
20
100
AcDbEntity
100
AcDbBlockBegin
2
*MODEL_SPACE
0
ENDBLK
5
21
100
AcDbEntity
100
AcDbBlockEnd
0
BLOCK
5
1C
100
AcDbEntity
100
AcDbBlockBegin
2
*PAPER_SPACE
0
ENDBLK
5
1D
100
AcDbEntity
100
AcDbBlockEnd
0
ENDSEC
0
SECTION
2
ENTITIES
0
CIRCLE
5
100
100
AcDbEntity
8
0
100
AcDbCircle
10
77.075881413045607
20
-77.075881413045963
30
0
40
3.499999999999996
210
0
220
0
230
1
0
CIRCLE
5
101
100
AcDbEntity
8
0
100
AcDbCircle
10
22.000000000000153
20
-22.000000000000206
30
0
40
1.4999999999999991
210
0
220
0
230
1
0
CIRCLE
5
102
100
AcDbEntity
8
0
100
AcDbCircle
10
69.075881413045593
20
-77.075881413045963
30
0
40
1.5000000000000036
210
0
220
0
230
1
0
CIRCLE
5
103
100
AcDbEntity
8
0
100
AcDbCircle
10
85.075881413045607
20
-77.075881413045948
30
0
40
1.5000000000000036
210
0
220
0
230
1
0
CIRCLE
5
104
100
AcDbEntity
8
0
100
AcDbCircle
10
77.075881413045579
20
-85.075881413045948
30
0
40
1.5000000000000036
210
0
220
0
230
1
0
CIRCLE
5
105
100
AcDbEntity
8
0
100
AcDbCircle
10
77.075881413045593
20
-69.075881413045963
30
0
40
1.5000000000000036
210
0
220
0
230
1
0
LWPOLYLINE
5
106
100
AcDbEntity
8
0
100
AcDbPolyline
90
28
70
1
43
0.0
10
68.490926604788228
20
-82.041546310347897
42
-0.44485114689243938
10
64.197179688308935
20
-75.981226453229183
42
0.25697149180024792
10
61.69343916190698
20
-67.350293411399633
42
0.016347889025170481
10
18.065602800352558
20
-26.485739970715215
42
-0.027726051547484032
10
17.593420087093566
20
-26.02285941596708
10
11.993333488306133
20
-19.888608485196485
42
-0.16404754334972585
10
11.228247504434288
20
-18.130922090423422
42
-0.13726076703428325
10
11.693110890082654
20
-15.680365561062937
42
-0.51297930250773982
10
13.296143041392092
20
-15.417463384951748
10
14.189339828220175
20
-16.310660171779833
42
0.99999999999999989
10
16.310660171779819
20
-14.189339828220195
10
15.417463384952189
20
-13.296143041391664
42
-0.51297930174448036
10
15.680365558897764
20
-11.693110891156875
42
-0.13726058527520019
10
18.130918797169432
20
-11.22824722268178
42
-0.16404782620266362
10
19.888608485196492
20
-11.99333348830617
10
26.022859415966813
20
-17.593420087093918
42
-0.0277260515475217
10
26.48573997071523
20
-18.065602800353702
42
0.016347889025170481
10
67.350293411399264
20
-61.693439161907186
42
0.25697149180025219
10
75.981226453228757
20
-64.197179688308751
42
-0.44485114689244065
10
82.041546310348082
20
-68.490926604788626
42
0.30957090122476005
10
85.014078228189931
20
-71.895946104390575
10
93.825881413045579
20
-74.171143903390401
42
-0.77459666924149051
10
93.825881413045579
20
-79.980618922701538
10
85.676110028613763
20
-82.084880845855025
42
0.27284213266315566
10
82.084880845854485
20
-85.676110028614275
10
79.980618922701069
20
-93.825881413045963
42
-0.77459666924149062
10
74.171143903389932
20
-93.825881413045934
10
71.895946104389736
20
-85.014078228190385
42
0.30957090122476139
0
ENDSEC
0
SECTION
2
OBJECTS
0
DICTIONARY
5
C
100
AcDbDictionary
3
ACAD_GROUP
350
D
3
ACAD_MLINESTYLE
350
17
0
DICTIONARY
5
D
100
AcDbDictionary
0
DICTIONARY
5
1A
330
C
100
AcDbDictionary
0
DICTIONARY
5
17
100
AcDbDictionary
0
ENDSEC
0
EOF
