0
SECTION
2
HEADER
9
$INSUNITS
70
4
9
$ACADVER
1
AC1014
9
$HANDSEED
5
FFFF
0
ENDSEC
0
SECTION
2
TABLES
0
TABLE
2
VPORT
5
8
100
AcDbSymbolTable
0
ENDTAB
0
TABLE
2
LTYPE
5
5
100
AcDbSymbolTable
0
LTYPE
5
14
100
AcDbSymbolTableRecord
100
AcDbLinetypeTableRecord
2
BYBLOCK
70
0
0
LTYPE
5
15
100
AcDbSymbolTableRecord
100
AcDbLinetypeTableRecord
2
BYLAYER
70
0
0
ENDTAB
0
TABLE
2
LAYER
5
2
100
AcDbSymbolTable
70
2
0
LAYER
5
50
100
AcDbSymbolTableRecord
100
AcDbLayerTableRecord
2
0
70
0
6
CONTINUOUS
0
ENDTAB
0
TABLE
2
STYLE
5
3
100
AcDbSymbolTable
70
1
0
STYLE
5
11
100
AcDbSymbolTableRecord
100
AcDbTextStyleTableRecord
2
STANDARD
70
0
0
ENDTAB
0
TABLE
2
VIEW
5
6
100
AcDbSymbolTable
70
0
0
ENDTAB
0
TABLE
2
UCS
5
7
100
AcDbSymbolTable
70
0
0
ENDTAB
0
TABLE
2
APPID
5
9
100
AcDbSymbolTable
70
2
0
APPID
5
12
100
AcDbSymbolTableRecord
100
AcDbRegAppTableRecord
2
ACAD
70
0
0
ENDTAB
0
TABLE
2
DIMSTYLE
5
A
100
AcDbSymbolTable
70
1
0
ENDTAB
0
TABLE
2
BLOCK_RECORD
5
1
100
AcDbSymbolTable
70
1
0
BLOCK_RECORD
5
1F
100
AcDbSymbolTableRecord
100
AcDbBlockTableRecord
2
*MODEL_SPACE
0
BLOCK_RECORD
5
1B
100
AcDbSymbolTableRecord
100
AcDbBlockTableRecord
2
*PAPER_SPACE
0
ENDTAB
0
ENDSEC
0
SECTION
2
BLOCKS
0
BLOCK
5
20
100
AcDbEntity
100
AcDbBlockBegin
2
*MODEL_SPACE
0
ENDBLK
5
21
100
AcDbEntity
100
AcDbBlockEnd
0
BLOCK
5
1C
100
AcDbEntity
100
AcDbBlockBegin
2
*PAPER_SPACE
0
ENDBLK
5
1D
100
AcDbEntity
100
AcDbBlockEnd
0
ENDSEC
0
SECTION
2
ENTITIES
0
CIRCLE
5
100
100
AcDbEntity
8
0
100
AcDbCircle
10
80.585753352511006
20
-72.585753352511446
30
0
40
1.5000000000000036
210
0
220
0
230
1
0
CIRCLE
5
101
100
AcDbEntity
8
0
100
AcDbCircle
10
22.000000000000153
20
-22.000000000000206
30
0
40
1.4999999999999991
210
0
220
0
230
1
0
CIRCLE
5
102
100
AcDbEntity
8
0
100
AcDbCircle
10
72.585753352511077
20
-64.585753352511389
30
0
40
1.4999999999999947
210
0
220
0
230
1
0
CIRCLE
5
103
100
AcDbEntity
8
0
100
AcDbCircle
10
72.585753352511034
20
-72.585753352511389
30
0
40
3.499999999999996
210
0
220
0
230
1
0
CIRCLE
5
104
100
AcDbEntity
8
0
100
AcDbCircle
10
72.585753352510977
20
-80.585753352511375
30
0
40
1.4999999999999947
210
0
220
0
230
1
0
CIRCLE
5
105
100
AcDbEntity
8
0
100
AcDbCircle
10
64.58575335251102
20
-72.585753352511347
30
0
40
1.4999999999999947
210
0
220
0
230
1
0
LWPOLYLINE
5
106
100
AcDbEntity
8
0
100
AcDbPolyline
90
29
70
1
43
0.0
10
75.49049086216661
20
-89.335753352511404
42
-0.77459666924148551
10
69.681015842855473
20
-89.335753352511404
10
67.405818043855049
20
-80.523950167654874
42
0.30957090122474895
10
64.000798544253612
20
-77.55141824981321
42
-0.44485114689211347
10
59.707051627773218
20
-71.491098392699826
42
0.25697149179997592
10
57.203311101372307
20
-62.86016535086496
42
0.018231222152648403
10
17.705432371611934
20
-26.142225645068947
42
-0.041964911860943879
10
17.119532958052453
20
-25.543335923786845
42
0.00018809191421064288
10
17.100992951635767
20
-25.530462714893947
10
11.993333488306126
20
-19.888608485196492
42
-0.16404754334972541
10
11.228247504434286
20
-18.130922090423425
42
-0.13726076703428336
10
11.693110890082654
20
-15.680365561062937
42
-0.51297930250773982
10
13.296143041392092
20
-15.417463384951748
10
14.189339828220175
20
-16.310660171779833
42
0.99999999999999989
10
16.310660171779823
20
-14.189339828220193
10
15.41746338495174
20
-13.296143041392114
42
-0.51297930174447925
10
15.680365558897764
20
-11.693110891156879
42
-0.13726058527520041
10
18.130918797169432
20
-11.228247222681775
42
-0.1640478262026642
10
19.888608485196499
20
-11.99333348830617
10
25.714210378114938
20
-17.267342604197548
42
-0.03065228135570797
10
26.142225645067825
20
-17.705432371610428
42
0.018231222152650689
10
62.86016535086469
20
-57.203311101372599
42
0.25697149179997375
10
71.491098392699527
20
-59.707051627773524
42
-0.4448511468921158
10
77.551418249813025
20
-64.000798544253996
42
0.30957090122474795
10
80.523950167654519
20
-67.405818043855461
10
89.335753352511048
20
-69.681015842855928
42
-0.77459666924148607
10
89.335753352511006
20
-75.490490862167093
10
81.185981968079346
20
-77.594752785320452
42
0.27284213266315727
10
77.594752785320026
20
-81.185981968079744
0
ENDSEC
0
SECTION
2
OBJECTS
0
DICTIONARY
5
C
100
AcDbDictionary
3
ACAD_GROUP
350
D
3
ACAD_MLINESTYLE
350
17
0
DICTIONARY
5
D
100
AcDbDictionary
0
DICTIONARY
5
1A
330
C
100
AcDbDictionary
0
DICTIONARY
5
17
100
AcDbDictionary
0
ENDSEC
0
EOF
