0
SECTION
2
HEADER
9
$INSUNITS
70
4
9
$ACADVER
1
AC1014
9
$HANDSEED
5
FFFF
0
ENDSEC
0
SECTION
2
TABLES
0
TABLE
2
VPORT
5
8
100
AcDbSymbolTable
0
ENDTAB
0
TABLE
2
LTYPE
5
5
100
AcDbSymbolTable
0
LTYPE
5
14
100
AcDbSymbolTableRecord
100
AcDbLinetypeTableRecord
2
BYBLOCK
70
0
0
LTYPE
5
15
100
AcDbSymbolTableRecord
100
AcDbLinetypeTableRecord
2
BYLAYER
70
0
0
ENDTAB
0
TABLE
2
LAYER
5
2
100
AcDbSymbolTable
70
2
0
LAYER
5
50
100
AcDbSymbolTableRecord
100
AcDbLayerTableRecord
2
0
70
0
6
CONTINUOUS
0
ENDTAB
0
TABLE
2
STYLE
5
3
100
AcDbSymbolTable
70
1
0
STYLE
5
11
100
AcDbSymbolTableRecord
100
AcDbTextStyleTableRecord
2
STANDARD
70
0
0
ENDTAB
0
TABLE
2
VIEW
5
6
100
AcDbSymbolTable
70
0
0
ENDTAB
0
TABLE
2
UCS
5
7
100
AcDbSymbolTable
70
0
0
ENDTAB
0
TABLE
2
APPID
5
9
100
AcDbSymbolTable
70
2
0
APPID
5
12
100
AcDbSymbolTableRecord
100
AcDbRegAppTableRecord
2
ACAD
70
0
0
ENDTAB
0
TABLE
2
DIMSTYLE
5
A
100
AcDbSymbolTable
70
1
0
ENDTAB
0
TABLE
2
BLOCK_RECORD
5
1
100
AcDbSymbolTable
70
1
0
BLOCK_RECORD
5
1F
100
AcDbSymbolTableRecord
100
AcDbBlockTableRecord
2
*MODEL_SPACE
0
BLOCK_RECORD
5
1B
100
AcDbSymbolTableRecord
100
AcDbBlockTableRecord
2
*PAPER_SPACE
0
ENDTAB
0
ENDSEC
0
SECTION
2
BLOCKS
0
BLOCK
5
20
100
AcDbEntity
100
AcDbBlockBegin
2
*MODEL_SPACE
0
ENDBLK
5
21
100
AcDbEntity
100
AcDbBlockEnd
0
BLOCK
5
1C
100
AcDbEntity
100
AcDbBlockBegin
2
*PAPER_SPACE
0
ENDBLK
5
1D
100
AcDbEntity
100
AcDbBlockEnd
0
ENDSEC
0
SECTION
2
ENTITIES
0
ARC
5
100
100
AcDbEntity
8
0
100
AcDbCircle
10
0.97917444276726773
20
30.806791325933702
30
0
40
5.0000000000004192
210
-0
220
0
230
1
100
AcDbArc
50
-2.7883276155875092
51
4.1067425137630558
0
LINE
5
101
100
AcDbEntity
8
0
100
AcDbLine
10
-5.8867924528305382
20
32.272730534391904
30
0
11
-5.9663362541242693
21
31.164865434616715
31
0
0
ARC
5
102
100
AcDbEntity
8
0
100
AcDbCircle
10
2.5863638053001026
20
22.692843971067916
30
0
40
3.0000000000000089
210
-0
220
0
230
1
100
AcDbArc
50
319.80954794979732
51
357.21167238443525
0
ARC
5
103
100
AcDbEntity
8
0
100
AcDbCircle
10
1.3407610566004458
20
23.745104149898879
30
0
40
4.6305758772659225
210
-0
220
0
230
1
100
AcDbArc
50
288.62053162493504
51
319.80954794979721
0
ARC
5
104
100
AcDbEntity
8
0
100
AcDbCircle
10
738.83592810145058
20
84.897874530969801
30
0
40
734.83592810145024
210
0
220
0
230
1
100
AcDbArc
50
180
51
184.1067425137868
0
ARC
5
105
100
AcDbEntity
8
0
100
AcDbCircle
10
0
20
21.566756826189703
30
0
40
1.5000000000000013
210
0
220
-0
230
1
100
AcDbArc
50
0
51
180
0
ARC
5
106
100
AcDbEntity
8
0
100
AcDbCircle
10
-2.5863638053001048
20
22.692843971067916
30
0
40
3.0000000000000075
210
0
220
0
230
1
100
AcDbArc
50
182.78832761556484
51
220.19045205020271
0
LINE
5
107
100
AcDbEntity
8
0
100
AcDbLine
10
5.8867924528349107
20
32.272730534389503
30
0
11
5.9663362541281906
21
31.164865434614278
31
0
0
ARC
5
108
100
AcDbEntity
8
0
100
AcDbCircle
10
-738.83592810145069
20
84.897874530963975
30
0
40
734.83592810145001
210
-0
220
0
230
1
100
AcDbArc
50
-4.1067425137864388
51
0
0
LINE
5
109
100
AcDbEntity
8
0
100
AcDbLine
10
1.5000000000000024
20
20.30457420922243
30
0
11
1.5000000000000036
21
21.566756826189671
31
0
0
CIRCLE
5
110
100
AcDbEntity
8
0
100
AcDbCircle
10
1.9495516312417749e-12
20
31.112698372209458
30
0
40
1.4999999999986855
210
-0
220
0
230
1
0
ARC
5
111
100
AcDbEntity
8
0
100
AcDbCircle
10
0
20
21.566756826189703
30
0
40
1.5000000000000036
210
-0
220
0
230
1
100
AcDbArc
50
0
51
180
0
ARC
5
112
100
AcDbEntity
8
0
100
AcDbCircle
10
-0.97917444276349519
20
30.8067913259341
30
0
40
5.0000000000004121
210
0
220
0
230
1
100
AcDbArc
50
175.89325748621351
51
182.78832761556396
0
LINE
5
113
100
AcDbEntity
8
0
100
AcDbLine
10
-1.5000000000000024
20
20.304574209222427
30
0
11
-1.5000000000000013
21
21.566756826189671
31
0
0
ARC
5
114
100
AcDbEntity
8
0
100
AcDbCircle
10
2.5000000000000053
20
20.30457420922243
30
0
40
1.0000000000000031
210
0
220
0
230
1
100
AcDbArc
50
180
51
288.62053162493493
0
ARC
5
115
100
AcDbEntity
8
0
100
AcDbCircle
10
-1.340761056600448
20
23.745104149898879
30
0
40
4.6305758772659189
210
0
220
0
230
1
100
AcDbArc
50
220.19045205020282
51
251.37946837506502
0
LINE
5
116
100
AcDbEntity
8
0
100
AcDbLine
10
5.5828120103962187
20
22.546905099688889
30
0
11
5.9732547845937685
21
30.563559873637132
31
0
0
ARC
5
117
100
AcDbEntity
8
0
100
AcDbCircle
10
-2.5000000000000036
20
20.30457420922243
30
0
40
1.0000000000000056
210
0
220
0
230
1
100
AcDbArc
50
251.37946837506499
51
360
0
ARC
5
118
100
AcDbEntity
8
0
100
AcDbCircle
10
-12.000000000000671
20
84.897874530966391
30
0
40
7.9999999999998961
210
-0
220
0
230
1
100
AcDbArc
50
0
51
64.819220065135156
0
LINE
5
119
100
AcDbEntity
8
0
100
AcDbLine
10
-5.582812010395819
20
22.546905099691166
30
0
11
-5.9732547845900896
21
30.563559873639573
31
0
0
LWPOLYLINE
5
120
100
AcDbEntity
8
0
100
AcDbPolyline
90
4
70
1
43
0.0
10
-6.5407377259758803
20
98.232386233192912
42
-0.99999999999999989
10
-4.4194173824162064
20
96.111065889633309
10
-5.1265241636026992
20
95.403959108446813
42
-0.99999999999999989
10
-7.2478445071625153
20
97.525279452006629
0
ARC
5
121
100
AcDbEntity
8
0
100
AcDbCircle
10
-14.671191729624296
20
102.65180361560894
30
0
40
6.3928549083175268
210
0
220
0
230
1
100
AcDbArc
50
-41.557271854037182
51
41.557271854037197
0
ARC
5
122
100
AcDbEntity
8
0
100
AcDbCircle
10
-6.894291116569029
20
95.757512499040104
30
0
40
3.9999999999999809
210
0
220
0
230
1
100
AcDbArc
50
138.44272814596286
51
244.81922006515509
0
LWPOLYLINE
5
123
100
AcDbEntity
8
0
100
AcDbPolyline
90
4
70
1
43
0.0
10
6.5407377259752586
20
107.0712209980251
10
7.2478445071618935
20
107.77832777921141
42
0.99999999999999989
10
5.1265241636020775
20
109.89964812277123
10
4.4194173824155847
20
109.19254134158473
42
0.99999999999999989
0
ARC
5
124
100
AcDbEntity
8
0
100
AcDbCircle
10
-1.9697990484759331
20
112.43151572247154
30
0
40
1.5000000000000036
210
0
220
-0
230
1
100
AcDbArc
50
90
51
224.99999999999793
0
ARC
5
125
100
AcDbEntity
8
0
100
AcDbCircle
10
-0.020226411681240133
20
110.48194308567668
30
0
40
1.4999999999999847
210
0
220
0
230
1
100
AcDbArc
50
224.99999999999739
51
315.00000000000256
0
LWPOLYLINE
5
126
100
AcDbEntity
8
0
100
AcDbPolyline
90
4
70
1
43
0.0
10
-4.419417382416392
20
109.19254134158457
10
-5.1265241636026957
20
109.89964812277121
42
0.99999999999999989
10
-7.2478445071625162
20
107.77832777921139
10
-6.5407377259760224
20
107.0712209980249
42
0.99999999999999989
0
CIRCLE
5
127
100
AcDbEntity
8
0
100
AcDbCircle
10
-3.1086244689504383e-13
20
102.65180361560901
30
0
40
2.8423697574371549
210
-0
220
0
230
1
0
LINE
5
128
100
AcDbEntity
8
0
100
AcDbLine
10
-1.080886583461095
20
109.42128291389692
30
0
11
-3.0304592202557963
21
111.37085555069176
31
0
0
ARC
5
129
100
AcDbEntity
8
0
100
AcDbCircle
10
-6.8942911165690202
20
109.54609473217779
30
0
40
4
210
0
220
0
230
1
100
AcDbArc
50
164.00869418890991
51
221.55727185403717
0
LINE
5
130
100
AcDbEntity
8
0
100
AcDbLine
10
1.0404337600986144
20
109.42128291389692
30
0
11
2.9900063968933202
21
111.37085555069176
31
0
0
LINE
5
131
100
AcDbEntity
8
0
100
AcDbLine
10
-0.040632613074480517
20
113.93151572247154
30
0
11
1.9293462251134592
21
113.93151572247154
31
0
0
LINE
5
132
100
AcDbEntity
8
0
100
AcDbLine
10
0.0001797897119981684
20
113.93151572247154
30
0
11
-1.9697990484759331
21
113.93151572247154
31
0
0
ARC
5
133
100
AcDbEntity
8
0
100
AcDbCircle
10
1.9293462251134601
20
112.43151572247154
30
0
40
1.5000000000000004
210
-0
220
0
230
1
100
AcDbArc
50
-44.999999999998018
51
90.000000000000043
0
ARC
5
134
100
AcDbEntity
8
0
100
AcDbCircle
10
49.418189875794994
20
84.897874530966561
30
0
40
45.41818987579471
210
0
220
0
230
1
100
AcDbArc
50
151.1073317692412
51
180
0
ARC
5
135
100
AcDbEntity
8
0
100
AcDbCircle
10
6.1871843353819855
20
108.83898795099131
30
0
40
3.9999999999999987
210
0
220
0
230
1
100
AcDbArc
50
-29.940319607888203
51
12.390061022176189
0
LINE
5
136
100
AcDbEntity
8
0
100
AcDbLine
10
10.094022388673745
20
109.69725156163285
30
0
11
7.236733246556537
21
122.70372058058625
31
0
0
LINE
5
137
100
AcDbEntity
8
0
100
AcDbLine
10
-10.73950515935385
20
110.64806068681085
30
0
11
-7.2583897070939365
21
122.79510931962682
31
0
0
LINE
5
138
100
AcDbEntity
8
0
100
AcDbLine
10
-3.1379412956944464e-13
20
116.38611415257134
30
0
11
1.36830533858096
21
116.38611415257134
31
0
0
LINE
5
139
100
AcDbEntity
8
0
100
AcDbLine
10
-3.1379412956944464e-13
20
116.38611415257134
30
0
11
-1.3758700789661464
21
116.38611415257137
31
0
0
LINE
5
140
100
AcDbEntity
8
0
100
AcDbLine
10
2.8106761593760017
20
117.47432972435794
30
0
11
4.3292980765499038
21
122.79365651545332
31
0
0
LINE
5
141
100
AcDbEntity
8
0
100
AcDbLine
10
-2.8155577587338354
20
117.4650448177521
30
0
11
-4.3767467611098194
21
122.80294142205906
31
0
0
ARC
5
142
100
AcDbEntity
8
0
100
AcDbCircle
10
-5.8164344408775426
20
122.38187208723997
30
0
40
1.499999999999992
210
0
220
-0
230
1
100
AcDbArc
50
16.302756801467769
51
164.0086942127723
0
ARC
5
143
100
AcDbEntity
8
0
100
AcDbCircle
10
5.771668897344961
20
122.38187208723997
30
0
40
1.5000000000000036
210
0
220
-0
230
1
100
AcDbArc
50
12.390046918087984
51
164.06641274947739
0
ARC
5
144
100
AcDbEntity
8
0
100
AcDbCircle
10
-1.3758700789661347
20
117.88611415257137
30
0
40
1.5000000000000158
210
0
220
0
230
1
100
AcDbArc
50
196.30275680147426
51
269.99999999999955
0
ARC
5
145
100
AcDbEntity
8
0
100
AcDbCircle
10
1.3683053385809583
20
117.88611415257135
30
0
40
1.5000000000000036
210
0
220
0
230
1
100
AcDbArc
50
270.00000000000006
51
344.06641274947526
0
ENDSEC
0
SECTION
2
OBJECTS
0
DICTIONARY
5
C
100
AcDbDictionary
3
ACAD_GROUP
350
D
3
ACAD_MLINESTYLE
350
17
0
DICTIONARY
5
D
100
AcDbDictionary
0
DICTIONARY
5
1A
330
C
100
AcDbDictionary
0
DICTIONARY
5
17
100
AcDbDictionary
0
ENDSEC
0
EOF
