0
SECTION
2
HEADER
9
$INSUNITS
70
4
9
$ACADVER
1
AC1014
9
$HANDSEED
5
FFFF
0
ENDSEC
0
SECTION
2
TABLES
0
TABLE
2
VPORT
5
8
100
AcDbSymbolTable
0
ENDTAB
0
TABLE
2
LTYPE
5
5
100
AcDbSymbolTable
0
LTYPE
5
14
100
AcDbSymbolTableRecord
100
AcDbLinetypeTableRecord
2
BYBLOCK
70
0
0
LTYPE
5
15
100
AcDbSymbolTableRecord
100
AcDbLinetypeTableRecord
2
BYLAYER
70
0
0
ENDTAB
0
TABLE
2
LAYER
5
2
100
AcDbSymbolTable
70
2
0
LAYER
5
50
100
AcDbSymbolTableRecord
100
AcDbLayerTableRecord
2
0
70
0
6
CONTINUOUS
0
ENDTAB
0
TABLE
2
STYLE
5
3
100
AcDbSymbolTable
70
1
0
STYLE
5
11
100
AcDbSymbolTableRecord
100
AcDbTextStyleTableRecord
2
STANDARD
70
0
0
ENDTAB
0
TABLE
2
VIEW
5
6
100
AcDbSymbolTable
70
0
0
ENDTAB
0
TABLE
2
UCS
5
7
100
AcDbSymbolTable
70
0
0
ENDTAB
0
TABLE
2
APPID
5
9
100
AcDbSymbolTable
70
2
0
APPID
5
12
100
AcDbSymbolTableRecord
100
AcDbRegAppTableRecord
2
ACAD
70
0
0
ENDTAB
0
TABLE
2
DIMSTYLE
5
A
100
AcDbSymbolTable
70
1
0
ENDTAB
0
TABLE
2
BLOCK_RECORD
5
1
100
AcDbSymbolTable
70
1
0
BLOCK_RECORD
5
1F
100
AcDbSymbolTableRecord
100
AcDbBlockTableRecord
2
*MODEL_SPACE
0
BLOCK_RECORD
5
1B
100
AcDbSymbolTableRecord
100
AcDbBlockTableRecord
2
*PAPER_SPACE
0
ENDTAB
0
ENDSEC
0
SECTION
2
BLOCKS
0
BLOCK
5
20
100
AcDbEntity
100
AcDbBlockBegin
2
*MODEL_SPACE
0
ENDBLK
5
21
100
AcDbEntity
100
AcDbBlockEnd
0
BLOCK
5
1C
100
AcDbEntity
100
AcDbBlockBegin
2
*PAPER_SPACE
0
ENDBLK
5
1D
100
AcDbEntity
100
AcDbBlockEnd
0
ENDSEC
0
SECTION
2
ENTITIES
0
ARC
5
100
100
AcDbEntity
8
0
100
AcDbCircle
10
82.436520116583608
20
-82.448937114553075
30
0
40
5.0000000000000338
210
0
220
0
230
1
100
AcDbArc
50
104.47751218593049
51
135.00000000000045
0
CIRCLE
5
101
100
AcDbEntity
8
0
100
AcDbCircle
10
72.586291501015239
20
-80.59870849898472
30
0
40
1.5000000000000024
210
0
220
-0
230
1
0
ARC
5
102
100
AcDbEntity
8
0
100
AcDbCircle
10
72.58629150101541
20
-64.598708498984877
30
0
40
5.0000000000001474
210
0
220
-0
230
1
100
AcDbArc
50
6.7184740287523734
51
102.64648665340169
0
ARC
5
103
100
AcDbEntity
8
0
100
AcDbCircle
10
88.586291501015282
20
-72.598708498984749
30
0
40
2.9999999999999991
210
-0
220
0
230
1
100
AcDbArc
50
-75.522487814070615
51
75.522487814070672
0
ARC
5
104
100
AcDbEntity
8
0
100
AcDbCircle
10
17.739073993566027
20
-15.855030604389711
30
0
40
4.6304843629584722
210
0
220
-0
230
1
100
AcDbArc
50
85.192241451748345
51
116.98941114933741
0
ARC
5
105
100
AcDbEntity
8
0
100
AcDbCircle
10
15.250538148504042
20
-15.26295514647356
30
0
40
1.5000000000000002
210
0
220
0
230
1
100
AcDbArc
50
-45.000000000000156
51
45.00000000000005
0
CIRCLE
5
106
100
AcDbEntity
8
0
100
AcDbCircle
10
80.586291501015239
20
-72.598708498984749
30
0
40
1.5000000000000033
210
0
220
-0
230
1
0
CIRCLE
5
107
100
AcDbEntity
8
0
100
AcDbCircle
10
22.000579481710826
20
-22.012996479680346
30
0
40
1.5000000000000016
210
0
220
-0
230
1
0
ARC
5
108
100
AcDbEntity
8
0
100
AcDbCircle
10
-16.125108314642493
20
-12.601991406678083
30
0
40
1.000000000000838
210
-0
220
0
230
-1
100
AcDbArc
50
-45.000000000033737
51
60.825723288817564
0
CIRCLE
5
109
100
AcDbEntity
8
0
100
AcDbCircle
10
72.586291501015239
20
-72.598708498984749
30
0
40
3.0000000000000004
210
0
220
-0
230
1
0
CIRCLE
5
110
100
AcDbEntity
8
0
100
AcDbCircle
10
64.586291501015268
20
-72.598708498984763
30
0
40
1.5000000000000036
210
0
220
-0
230
1
0
CIRCLE
5
111
100
AcDbEntity
8
0
100
AcDbCircle
10
72.586291501015253
20
-64.598708498984777
30
0
40
1.5000000000000033
210
0
220
-0
230
1
0
ARC
5
112
100
AcDbEntity
8
0
100
AcDbCircle
10
-17.875729453369601
20
-14.230283072261125
30
0
40
3.0000000000000124
210
0
220
0
230
-1
100
AcDbArc
50
94.807757919337249
51
123.85485736614572
0
LINE
5
113
100
AcDbEntity
8
0
100
AcDbLine
10
89.336291501015253
20
-69.693970989329173
30
0
11
80.524488316159193
21
-67.418773190329105
31
0
0
ARC
5
114
100
AcDbEntity
8
0
100
AcDbCircle
10
-81.524488316159292
20
-63.545789844121444
30
0
40
4.000000000000262
210
-0
220
0
230
-1
100
AcDbArc
50
284.47751218593044
51
353.28152597124904
0
LINE
5
115
100
AcDbEntity
8
0
100
AcDbLine
10
81.186520116583551
20
-77.607707931793783
30
0
11
89.336291501015253
21
-75.50344600864031
31
0
0
LINE
5
116
100
AcDbEntity
8
0
100
AcDbLine
10
15.418001533455769
20
-13.30909818786564
30
0
11
16.311198320283861
21
-14.202294974693739
31
0
0
ARC
5
117
100
AcDbEntity
8
0
100
AcDbCircle
10
-69.451104212621587
20
-50.625948201006494
30
0
40
9.3201756161739393
210
0
220
-0
230
-1
100
AcDbArc
50
257.35351334659975
51
276.67437219289729
0
LINE
5
118
100
AcDbEntity
8
0
100
AcDbLine
10
25.815069637580375
20
-16.642107159414419
30
0
11
19.891416293331133
21
-12.008345502659763
31
0
0
ARC
5
119
100
AcDbEntity
8
0
100
AcDbCircle
10
582.75188337436009
20
462.67483096073698
30
0
40
734.73709908338515
210
0
220
0
230
1
100
AcDbArc
50
220.80944150521432
51
225.00000000000014
0
LINE
5
120
100
AcDbEntity
8
0
100
AcDbLine
10
26.638651903987842
20
-17.509173930146979
30
0
11
26.237336647432244
21
-17.044400589326912
31
0
0
ARC
5
121
100
AcDbEntity
8
0
100
AcDbCircle
10
23.966674533742474
20
-19.005036599771515
30
0
40
2.9999999999997051
210
0
220
-0
230
1
100
AcDbArc
50
40.809441505213663
51
51.965802183134059
0
LINE
5
122
100
AcDbEntity
8
0
100
AcDbLine
10
63.214298223167319
20
-56.862754190458098
30
0
11
64.231690875042403
21
-57.880146842333183
31
0
0
ARC
5
123
100
AcDbEntity
8
0
100
AcDbCircle
10
69.181438343348205
20
-52.930399374027402
30
0
40
6.9999999999999352
210
0
220
0
230
1
100
AcDbArc
50
224.99999999999989
51
263.32562780710288
0
LINE
5
124
100
AcDbEntity
8
0
100
AcDbLine
10
19.891416293331133
20
-12.008345502659763
30
0
11
19.547002392020829
21
-11.738928668621977
31
0
0
ARC
5
125
100
AcDbEntity
8
0
100
AcDbCircle
10
15.250538148504029
20
-15.262955146473569
30
0
40
1.4999999999999845
210
0
220
0
230
1
100
AcDbArc
50
225.00000000000006
51
315.00000000000028
0
LINE
5
126
100
AcDbEntity
8
0
100
AcDbLine
10
13.296681189896118
20
-15.430418531425287
30
0
11
14.189877976724219
21
-16.323615318253381
31
0
0
ARC
5
127
100
AcDbEntity
8
0
100
AcDbCircle
10
-12.58957440870855
20
-16.13752531261202
30
0
40
1.0000000000008389
210
0
220
0
230
-1
100
AcDbArc
50
29.174276711181783
51
135.00000000003385
0
ARC
5
128
100
AcDbEntity
8
0
100
AcDbCircle
10
15.842613606420182
20
-17.751490991535555
30
0
40
4.6304843629601153
210
0
220
0
230
1
100
AcDbArc
50
153.01058885066277
51
184.8077585482516
0
ARC
5
129
100
AcDbEntity
8
0
100
AcDbCircle
10
-14.217866074291594
20
-17.888146451339139
30
0
40
3.0000000000000253
210
-0
220
0
230
-1
100
AcDbArc
50
326.14514263385445
51
355.19224208066294
0
LINE
5
130
100
AcDbEntity
8
0
100
AcDbLine
10
11.995928504690241
20
-19.903833291300657
30
0
11
11.726511670652435
21
-19.559419389990367
31
0
0
LINE
5
131
100
AcDbEntity
8
0
100
AcDbLine
10
16.629690161444888
20
-25.82748663554991
30
0
11
11.995928504690241
21
-19.903833291300657
31
0
0
ARC
5
132
100
AcDbEntity
8
0
100
AcDbCircle
10
18.992619601801984
20
-23.979091531712005
30
0
40
2.9999999999997078
210
0
220
0
230
1
100
AcDbArc
50
218.03419781686597
51
229.1905584947865
0
LINE
5
133
100
AcDbEntity
8
0
100
AcDbLine
10
17.496756932177444
20
-26.651068901957373
30
0
11
17.031983591357385
21
-26.249753645401785
31
0
0
ARC
5
134
100
AcDbEntity
8
0
100
AcDbCircle
10
-462.68724795870639
20
-582.7643003723299
30
0
40
734.73709908338515
210
0
220
-0
230
1
100
AcDbArc
50
44.999999999999901
51
49.190558494785655
0
LINE
5
135
100
AcDbEntity
8
0
100
AcDbLine
10
56.850337192488581
20
-63.226715221136843
30
0
11
57.867729844363666
21
-64.244107873011927
31
0
0
ARC
5
136
100
AcDbEntity
8
0
100
AcDbCircle
10
52.917982376057893
20
-69.193855341317729
30
0
40
6.9999999999999289
210
0
220
-0
230
1
100
AcDbArc
50
6.6743721928973034
51
45.000000000000156
0
ARC
5
137
100
AcDbEntity
8
0
100
AcDbCircle
10
-50.613531203036985
20
-69.463521210591111
30
0
40
9.320175616173934
210
0
220
0
230
-1
100
AcDbArc
50
173.32562780710256
51
192.64648665340013
0
ARC
5
138
100
AcDbEntity
8
0
100
AcDbCircle
10
64.586291501015367
20
-72.598708498984919
30
0
40
5.0000000000001581
210
0
220
0
230
1
100
AcDbArc
50
167.35351334659845
51
263.28152597124762
0
ARC
5
139
100
AcDbEntity
8
0
100
AcDbCircle
10
-63.533372846151934
20
-81.536905314128802
30
0
40
4.0000000000002718
210
0
220
0
230
-1
100
AcDbArc
50
96.718474028751004
51
165.52248781406959
0
LINE
5
140
100
AcDbEntity
8
0
100
AcDbLine
10
69.681553991359664
20
-89.348708498984763
30
0
11
67.406356192359596
21
-80.536905314128703
31
0
0
ARC
5
141
100
AcDbEntity
8
0
100
AcDbCircle
10
72.586291501015239
20
-88.598708498984792
30
0
40
2.9999999999999991
210
0
220
0
230
1
100
AcDbArc
50
194.47751218592933
51
345.52248781407059
0
LINE
5
142
100
AcDbEntity
8
0
100
AcDbLine
10
77.595290933824273
20
-81.198937114553061
30
0
11
75.4910290106708
21
-89.348708498984763
31
0
0
ARC
5
143
100
AcDbEntity
8
0
100
AcDbCircle
10
82.436520116583566
20
-82.448937114553118
30
0
40
5.00000000000004
210
0
220
0
230
1
100
AcDbArc
50
134.99999999999977
51
165.52248781406951
0
ENDSEC
0
SECTION
2
OBJECTS
0
DICTIONARY
5
C
100
AcDbDictionary
3
ACAD_GROUP
350
D
3
ACAD_MLINESTYLE
350
17
0
DICTIONARY
5
D
100
AcDbDictionary
0
DICTIONARY
5
1A
330
C
100
AcDbDictionary
0
DICTIONARY
5
17
100
AcDbDictionary
0
ENDSEC
0
EOF
