0
SECTION
2
HEADER
9
$INSUNITS
70
4
9
$ACADVER
1
AC1014
9
$HANDSEED
5
FFFF
0
ENDSEC
0
SECTION
2
TABLES
0
TABLE
2
VPORT
5
8
100
AcDbSymbolTable
0
ENDTAB
0
TABLE
2
LTYPE
5
5
100
AcDbSymbolTable
0
LTYPE
5
14
100
AcDbSymbolTableRecord
100
AcDbLinetypeTableRecord
2
BYBLOCK
70
0
0
LTYPE
5
15
100
AcDbSymbolTableRecord
100
AcDbLinetypeTableRecord
2
BYLAYER
70
0
0
ENDTAB
0
TABLE
2
LAYER
5
2
100
AcDbSymbolTable
70
2
0
LAYER
5
50
100
AcDbSymbolTableRecord
100
AcDbLayerTableRecord
2
0
70
0
6
CONTINUOUS
0
ENDTAB
0
TABLE
2
STYLE
5
3
100
AcDbSymbolTable
70
1
0
STYLE
5
11
100
AcDbSymbolTableRecord
100
AcDbTextStyleTableRecord
2
STANDARD
70
0
0
ENDTAB
0
TABLE
2
VIEW
5
6
100
AcDbSymbolTable
70
0
0
ENDTAB
0
TABLE
2
UCS
5
7
100
AcDbSymbolTable
70
0
0
ENDTAB
0
TABLE
2
APPID
5
9
100
AcDbSymbolTable
70
2
0
APPID
5
12
100
AcDbSymbolTableRecord
100
AcDbRegAppTableRecord
2
ACAD
70
0
0
ENDTAB
0
TABLE
2
DIMSTYLE
5
A
100
AcDbSymbolTable
70
1
0
ENDTAB
0
TABLE
2
BLOCK_RECORD
5
1
100
AcDbSymbolTable
70
1
0
BLOCK_RECORD
5
1F
100
AcDbSymbolTableRecord
100
AcDbBlockTableRecord
2
*MODEL_SPACE
0
BLOCK_RECORD
5
1B
100
AcDbSymbolTableRecord
100
AcDbBlockTableRecord
2
*PAPER_SPACE
0
ENDTAB
0
ENDSEC
0
SECTION
2
BLOCKS
0
BLOCK
5
20
100
AcDbEntity
100
AcDbBlockBegin
2
*MODEL_SPACE
0
ENDBLK
5
21
100
AcDbEntity
100
AcDbBlockEnd
0
BLOCK
5
1C
100
AcDbEntity
100
AcDbBlockBegin
2
*PAPER_SPACE
0
ENDBLK
5
1D
100
AcDbEntity
100
AcDbBlockEnd
0
ENDSEC
0
SECTION
2
ENTITIES
0
CIRCLE
5
100
100
AcDbEntity
8
0
100
AcDbCircle
10
69.605530465460816
20
-63.60553046546076
30
0
40
1.0000000000000053
210
0
220
-0
230
1
0
CIRCLE
5
101
100
AcDbEntity
8
0
100
AcDbCircle
10
63.605530465460809
20
-69.605530465460788
30
0
40
1.0000000000000053
210
0
220
-0
230
1
0
CIRCLE
5
102
100
AcDbEntity
8
0
100
AcDbCircle
10
21.999999999999996
20
-21.999999999999996
30
0
40
1.4999999999999991
210
0
220
-0
230
1
0
CIRCLE
5
103
100
AcDbEntity
8
0
100
AcDbCircle
10
63.605530465460795
20
-57.605530465460753
30
0
40
1.0000000000000053
210
0
220
-0
230
1
0
CIRCLE
5
104
100
AcDbEntity
8
0
100
AcDbCircle
10
57.605530465460788
20
-63.605530465460774
30
0
40
1.0000000000000053
210
0
220
-0
230
1
0
CIRCLE
5
105
100
AcDbEntity
8
0
100
AcDbCircle
10
63.605530465460802
20
-63.605530465460767
30
0
40
2.7499999999999947
210
0
220
-0
230
1
0
LWPOLYLINE
5
106
100
AcDbEntity
8
0
100
AcDbPolyline
90
34
70
1
43
0.0
10
60.908018251389898
20
-79.140252687683002
42
0.892986187597686
10
66.354276879453579
20
-78.688555471102489
42
-0.0028316593876869874
10
66.386210991181841
20
-78.720693658384533
10
67.776212112154212
20
-71.708557551879068
42
-0.30370626029733949
10
71.708557551879082
20
-67.776212112154212
10
78.720693658380696
20
-66.38621099118258
42
-0.0028316593877115237
10
78.688555471098724
20
-66.354276879453664
42
0.89298618759830806
10
79.140252687683031
20
-60.908018251389862
10
71.030347251985731
20
-59.300408605002488
42
-0.28479407061440398
10
67.948080528915185
20
-56.425590235452304
42
0.38465180603163707
10
62.873780330503678
20
-53.165424414474685
42
-0.24419048595617365
10
55.863790070397251
20
-50.876022840706518
42
-0.017608392121136435
10
26.18639377186831
20
-18.432913346754063
42
0.02915771928617282
10
25.742996017432162
20
-17.970114044605367
10
19.466265929815883
20
-12.140228042746262
42
0.1332774043797168
10
18.30686554498228
20
-11.531445719070792
42
0.18832945522775152
10
15.431148742564307
20
-11.977188951212137
42
0.49237545119042236
10
15.277427127792594
20
-13.156106784232955
42
0.0027976386027782291
10
15.285384133210789
20
-13.163975241041847
42
4.4842221622614841e-06
10
15.285301271388924
20
-13.163980927829279
10
16.310660187584887
20
-14.189339844025245
42
-0.9999999925494194
10
14.189339828220181
20
-16.310660171779823
10
13.163980927829279
20
-15.285301271388924
42
4.4842221622614841e-06
10
13.16397524104185
20
-15.285384133210787
42
0.0027976396798508208
10
13.15610678118655
20
-15.277427124746188
42
0.49237544940617567
10
11.977188951212138
20
-15.431148742564309
42
0.18832945522775127
10
11.531445719070792
20
-18.306865544982276
42
0.13327740437971763
10
12.140228042746264
20
-19.466265929815886
10
17.970114044605356
20
-25.742996017432169
42
0.029157719286215085
10
18.432913347039506
20
-26.186393771534743
42
-0.01760839212116087
10
50.876022841018468
20
-55.863790070078743
42
-0.24419048595617085
10
53.165424414914654
20
-62.873780330576153
42
0.38465180603163662
10
56.425590235452319
20
-67.948080528915156
42
-0.28479407061440531
10
59.300408605002524
20
-71.030347251985702
0
ENDSEC
0
SECTION
2
OBJECTS
0
DICTIONARY
5
C
100
AcDbDictionary
3
ACAD_GROUP
350
D
3
ACAD_MLINESTYLE
350
17
0
DICTIONARY
5
D
100
AcDbDictionary
0
DICTIONARY
5
1A
330
C
100
AcDbDictionary
0
DICTIONARY
5
17
100
AcDbDictionary
0
ENDSEC
0
EOF
