0
SECTION
2
HEADER
9
$INSUNITS
70
4
9
$ACADVER
1
AC1014
9
$HANDSEED
5
FFFF
0
ENDSEC
0
SECTION
2
TABLES
0
TABLE
2
VPORT
5
8
100
AcDbSymbolTable
0
ENDTAB
0
TABLE
2
LTYPE
5
5
100
AcDbSymbolTable
0
LTYPE
5
14
100
AcDbSymbolTableRecord
100
AcDbLinetypeTableRecord
2
BYBLOCK
70
0
0
LTYPE
5
15
100
AcDbSymbolTableRecord
100
AcDbLinetypeTableRecord
2
BYLAYER
70
0
0
ENDTAB
0
TABLE
2
LAYER
5
2
100
AcDbSymbolTable
70
2
0
LAYER
5
50
100
AcDbSymbolTableRecord
100
AcDbLayerTableRecord
2
0
70
0
6
CONTINUOUS
0
ENDTAB
0
TABLE
2
STYLE
5
3
100
AcDbSymbolTable
70
1
0
STYLE
5
11
100
AcDbSymbolTableRecord
100
AcDbTextStyleTableRecord
2
STANDARD
70
0
0
ENDTAB
0
TABLE
2
VIEW
5
6
100
AcDbSymbolTable
70
0
0
ENDTAB
0
TABLE
2
UCS
5
7
100
AcDbSymbolTable
70
0
0
ENDTAB
0
TABLE
2
APPID
5
9
100
AcDbSymbolTable
70
2
0
APPID
5
12
100
AcDbSymbolTableRecord
100
AcDbRegAppTableRecord
2
ACAD
70
0
0
ENDTAB
0
TABLE
2
DIMSTYLE
5
A
100
AcDbSymbolTable
70
1
0
ENDTAB
0
TABLE
2
BLOCK_RECORD
5
1
100
AcDbSymbolTable
70
1
0
BLOCK_RECORD
5
1F
100
AcDbSymbolTableRecord
100
AcDbBlockTableRecord
2
*MODEL_SPACE
0
BLOCK_RECORD
5
1B
100
AcDbSymbolTableRecord
100
AcDbBlockTableRecord
2
*PAPER_SPACE
0
ENDTAB
0
ENDSEC
0
SECTION
2
BLOCKS
0
BLOCK
5
20
100
AcDbEntity
100
AcDbBlockBegin
2
*MODEL_SPACE
0
ENDBLK
5
21
100
AcDbEntity
100
AcDbBlockEnd
0
BLOCK
5
1C
100
AcDbEntity
100
AcDbBlockBegin
2
*PAPER_SPACE
0
ENDBLK
5
1D
100
AcDbEntity
100
AcDbBlockEnd
0
ENDSEC
0
SECTION
2
ENTITIES
0
CIRCLE
5
100
100
AcDbEntity
8
0
100
AcDbCircle
10
89.566009473580152
20
-81.566009473580579
30
0
40
1.5000000000000036
210
0
220
0
230
1
0
CIRCLE
5
101
100
AcDbEntity
8
0
100
AcDbCircle
10
81.566009473580152
20
-81.566009473580564
30
0
40
3.499999999999996
210
0
220
0
230
1
0
CIRCLE
5
102
100
AcDbEntity
8
0
100
AcDbCircle
10
81.566009473580166
20
-73.566009473580579
30
0
40
1.5000000000000036
210
0
220
0
230
1
0
CIRCLE
5
103
100
AcDbEntity
8
0
100
AcDbCircle
10
81.566009473580152
20
-89.566009473580579
30
0
40
1.5000000000000036
210
0
220
0
230
1
0
CIRCLE
5
104
100
AcDbEntity
8
0
100
AcDbCircle
10
73.566009473580152
20
-81.566009473580579
30
0
40
1.5000000000000036
210
0
220
0
230
1
0
CIRCLE
5
105
100
AcDbEntity
8
0
100
AcDbCircle
10
22.000000000000153
20
-22.000000000000206
30
0
40
1.4999999999999991
210
0
220
0
230
1
0
LWPOLYLINE
5
106
100
AcDbEntity
8
0
100
AcDbPolyline
90
28
70
1
43
0.0
10
15.680365558897766
20
-11.693110891156879
42
-0.13726058527520019
10
18.130918797169432
20
-11.228247222681777
42
-0.16404782620266384
10
19.888608485196496
20
-11.99333348830617
10
26.027489343471849
20
-17.552604179048249
42
-0.027419989325070289
10
26.489992316530788
20
-18.020054146411724
42
0.015037585485790957
10
71.840421471933823
20
-66.183567222441781
42
0.25697183801863749
10
80.471352015068931
20
-68.68730830948725
42
-0.44485130027175285
10
86.531674370882072
20
-72.9810546653231
42
0.30957090122474973
10
89.504206288723594
20
-76.386074164924537
10
98.316009473580152
20
-78.661271963925003
42
-0.77459666924148496
10
98.316009473580138
20
-84.470746983236154
10
90.166238089148294
20
-86.575008906389641
42
0.27284213266315638
10
86.575008906389016
20
-90.166238089148891
10
84.470746983235642
20
-98.31600947358055
42
-0.77459666924148585
10
78.661271963924506
20
-98.316009473580536
10
76.386074164924082
20
-89.504206288723964
42
0.30957090122474945
10
72.981054665322574
20
-86.531674370883081
42
-0.4448513002717564
10
68.687308309486241
20
-80.471352015069115
42
0.25697183801863538
10
66.18356722244144
20
-71.840421471934235
42
0.015037585485790494
10
18.020054146413475
20
-26.489992316532422
42
-0.027419989325175174
10
17.552604179048114
20
-26.027489343471949
10
11.993333488306133
20
-19.888608485196485
42
-0.16404754334972585
10
11.228247504434288
20
-18.130922090423422
42
-0.13726076703428325
10
11.693110890082654
20
-15.680365561062937
42
-0.51297930250773982
10
13.296143041392092
20
-15.417463384951748
10
14.189339828220175
20
-16.310660171779833
42
0.99999999999999989
10
16.310660171779819
20
-14.189339828220195
10
15.417463384952185
20
-13.296143041391659
42
-0.51297930174448003
0
ENDSEC
0
SECTION
2
OBJECTS
0
DICTIONARY
5
C
100
AcDbDictionary
3
ACAD_GROUP
350
D
3
ACAD_MLINESTYLE
350
17
0
DICTIONARY
5
D
100
AcDbDictionary
0
DICTIONARY
5
1A
330
C
100
AcDbDictionary
0
DICTIONARY
5
17
100
AcDbDictionary
0
ENDSEC
0
EOF
